# xmcd
#
# Track frame offsets: 
#        150
#        12372
#        25080
#        40552
#        50360
#        66469
#        76636
#        90983
#        99312
#        105729
#        118555
#        134186
#        150470
#        161300
#        174292
#
# Disc length: 2508 seconds
#
# Revision: 0
# Processed by: cddbd v1.5.2PL0 Copyright (c) Steve Scherf et al.
# Submitted via: ExactAudioCopyFreeDBPlugin 1.0
#
DISCID=a809ca0f
DTITLE=Mike Seeger - Mike Seeger (Vanguard)
DYEAR=1964
DGENRE=Old Time Music
TTITLE0=Hello Stranger
TTITLE1=Oh Molly Dear
TTITLE2=Bachelor's Hall
TTITLE3=We Live A Long Long Time
TTITLE4=Fishing Blues
TTITLE5=Johnny Grey, Rye Straw
TTITLE6=The Two Soldiers
TTITLE7=Waterbound
TTITLE8=Leather Breeches
TTITLE9=Young McAfee On The Gallows
TTITLE10=Old Rachel
TTITLE11=It'll Aggravate Your Soul
TTITLE12=Fair And Tender Ladies
TTITLE13=Wild Bill Jones
TTITLE14=I've Been All Around This World
EXTD=
EXTT0=
EXTT1=
EXTT2=
EXTT3=
EXTT4=
EXTT5=
EXTT6=
EXTT7=
EXTT8=
EXTT9=
EXTT10=
EXTT11=
EXTT12=
EXTT13=
EXTT14=
PLAYORDER=
